<svg width="12" height="12" viewBox="0 0 12 12" fill="none" xmlns="http://www.w3.org/2000/svg">
<path fill-rule="evenodd" clip-rule="evenodd" d="M5.00043 10.4999C5.00043 11.0522 5.44814 11.4999 6.00043 11.4999C6.55271 11.4999 7.00043 11.0522 7.00043 10.4999V6.99955H10.4999C11.0522 6.99955 11.4999 6.55183 11.4999 5.99955C11.4999 5.44727 11.0522 4.99955 10.4999 4.99955H7.00043V1.5C7.00043 0.947716 6.55271 0.5 6.00043 0.5C5.44814 0.5 5.00043 0.947716 5.00043 1.5V4.99955H1.5C0.947715 4.99955 0.5 5.44727 0.5 5.99955C0.5 6.55183 0.947715 6.99955 1.5 6.99955H5.00043V10.4999Z" fill="#496727"/>
</svg>
